<svg width="512" height="512" viewBox="0 0 512 512" fill="none" xmlns="http://www.w3.org/2000/svg">
  <!-- Outer border -->
  <rect width="512" height="512" fill="white"/>
  <rect x="32" y="32" width="448" height="448" fill="black"/>
  <rect x="64" y="64" width="384" height="384" fill="white"/>
  
  <!-- Unique pattern for wkwk -->
  <rect x="96" y="96" width="320" height="320" fill="black"/>
  <rect x="128" y="128" width="256" height="256" fill="white"/>
  
  <!-- Central diamond pattern -->
  <polygon points="256,176 336,256 256,336 176,256" fill="black"/>
  <polygon points="256,200 312,256 256,312 200,256" fill="white"/>
  <rect x="240" y="240" width="32" height="32" fill="black"/>
  
  <!-- Side markers for wkwk -->
  <rect x="144" y="224" width="32" height="64" fill="black"/>
  <rect x="336" y="224" width="32" height="64" fill="black"/>
  <rect x="224" y="144" width="64" height="32" fill="black"/>
  <rect x="224" y="336" width="64" height="32" fill="black"/>
  
  <!-- Triangle markers -->
  <polygon points="192,192 208,192 200,176" fill="black"/>
  <polygon points="304,192 320,192 312,176" fill="black"/>
  <polygon points="192,320 208,320 200,336" fill="black"/>
  <polygon points="304,320 320,320 312,336" fill="black"/>
</svg>