{
  "asset": {
    "generator": "Khronos glTF Blender I/O v1.7.33",
    "version": "2.0"
  },
  "scene": 0,
  "scenes": [
    {
      "name": "Scene",
      "nodes": [
        0,
        1,
        2
      ]
    }
  ],
  "nodes": [
    {
      "mesh": 0,
      "name": "球",
      "scale": [
        1.3521183729171753,
        1.3790756464004517,
        1.5149773359298706
      ],
      "translation": [
        0,
        -0.3739171326160431,
        0
      ],
      "rotation": [
        0,
        0,
        0,
        1
      ]
    },
    {
      "mesh": 1,
      "name": "NURBSカーブ",
      "rotation": [
        0.7826748490333557,
        0,
        0,
        0.6224308013916016
      ],
      "scale": [
        0.9095196723937988,
        0.9095196723937988,
        0.9095196723937988
      ],
      "translation": [
        0.2646838426589966,
        -1.0557280778884888,
        1.3718620538711548
      ]
    },
    {
      "mesh": 2,
      "name": "球.001",
      "rotation": [
        -0.0993562564253807,
        0,
        0,
        0.995051920413971
      ],
      "scale": [
        0.12189825624227524,
        0.20197859406471252,
        0.07782735675573349
      ],
      "translation": [
        -0.3187355697154999,
        -0.113822340965271,
        1.4116920232772827
      ]
    }
  ],
  "materials": [
    {
      "doubleSided": true,
      "name": "gold",
      "pbrMetallicRoughness": {
        "baseColorFactor": [
          0.783610463142395,
          0.8000000715255737,
          0.07892966270446777,
          1
        ],
        "roughnessFactor": 0,
        "metallicFactor": 1
      },
      "emissiveFactor": [
        0,
        0,
        0
      ],
      "alphaMode": "OPAQUE"
    }
  ],
  "meshes": [
    {
      "name": "球",
      "primitives": [
        {
          "attributes": {
            "POSITION": 0,
            "NORMAL": 1,
            "TEXCOORD_0": 2
          },
          "indices": 3,
          "material": 0,
          "mode": 4
        }
      ]
    },
    {
      "name": "NURBSカーブ",
      "primitives": [
        {
          "attributes": {
            "POSITION": 4,
            "NORMAL": 5,
            "TEXCOORD_0": 6
          },
          "indices": 7,
          "material": 0,
          "mode": 4
        }
      ]
    },
    {
      "name": "球.001",
      "primitives": [
        {
          "attributes": {
            "POSITION": 8,
            "NORMAL": 9,
            "TEXCOORD_0": 10
          },
          "indices": 11,
          "material": 0,
          "mode": 4
        }
      ]
    }
  ],
  "accessors": [
    {
      "bufferView": 0,
      "componentType": 5126,
      "count": 8576,
      "max": [
        0.9872310161590576,
        1.6400638818740845,
        0.9872307181358337
      ],
      "min": [
        -0.9872304201126099,
        -0.9975767135620117,
        -1.456274390220642
      ],
      "type": "VEC3",
      "byteOffset": 0
    },
    {
      "bufferView": 1,
      "componentType": 5126,
      "count": 8576,
      "type": "VEC3",
      "byteOffset": 0
    },
    {
      "bufferView": 2,
      "componentType": 5126,
      "count": 8576,
      "type": "VEC2",
      "byteOffset": 0
    },
    {
      "bufferView": 3,
      "componentType": 5123,
      "count": 12864,
      "type": "SCALAR",
      "byteOffset": 0
    },
    {
      "bufferView": 4,
      "componentType": 5126,
      "count": 492,
      "max": [
        0.2404206395149231,
        -0.01585707627236843,
        -0.13384589552879333
      ],
      "min": [
        -0.7683072090148926,
        -0.09820985049009323,
        -0.5004894733428955
      ],
      "type": "VEC3",
      "byteOffset": 0
    },
    {
      "bufferView": 5,
      "componentType": 5126,
      "count": 492,
      "type": "VEC3",
      "byteOffset": 0
    },
    {
      "bufferView": 6,
      "componentType": 5126,
      "count": 492,
      "type": "VEC2",
      "byteOffset": 0
    },
    {
      "bufferView": 7,
      "componentType": 5123,
      "count": 2580,
      "type": "SCALAR",
      "byteOffset": 0
    },
    {
      "bufferView": 8,
      "componentType": 5126,
      "count": 3968,
      "max": [
        6.229534149169922,
        1,
        0.9999994039535522
      ],
      "min": [
        -0.9999990463256836,
        -1,
        -0.9999987483024597
      ],
      "type": "VEC3",
      "byteOffset": 0
    },
    {
      "bufferView": 9,
      "componentType": 5126,
      "count": 3968,
      "type": "VEC3",
      "byteOffset": 0
    },
    {
      "bufferView": 10,
      "componentType": 5126,
      "count": 3968,
      "type": "VEC2",
      "byteOffset": 0
    },
    {
      "bufferView": 11,
      "componentType": 5123,
      "count": 5760,
      "type": "SCALAR",
      "byteOffset": 0
    }
  ],
  "bufferViews": [
    {
      "buffer": 0,
      "byteLength": 102912,
      "byteOffset": 0,
      "byteStride": 12,
      "target": 34962
    },
    {
      "buffer": 0,
      "byteLength": 102912,
      "byteOffset": 102912,
      "byteStride": 12,
      "target": 34962
    },
    {
      "buffer": 0,
      "byteLength": 68608,
      "byteOffset": 205824,
      "byteStride": 8,
      "target": 34962
    },
    {
      "buffer": 0,
      "byteLength": 25728,
      "byteOffset": 274432,
      "target": 34963
    },
    {
      "buffer": 0,
      "byteLength": 5904,
      "byteOffset": 300160,
      "byteStride": 12,
      "target": 34962
    },
    {
      "buffer": 0,
      "byteLength": 5904,
      "byteOffset": 306064,
      "byteStride": 12,
      "target": 34962
    },
    {
      "buffer": 0,
      "byteLength": 3936,
      "byteOffset": 311968,
      "byteStride": 8,
      "target": 34962
    },
    {
      "buffer": 0,
      "byteLength": 5160,
      "byteOffset": 315904,
      "target": 34963
    },
    {
      "buffer": 0,
      "byteLength": 47616,
      "byteOffset": 321064,
      "byteStride": 12,
      "target": 34962
    },
    {
      "buffer": 0,
      "byteLength": 47616,
      "byteOffset": 368680,
      "byteStride": 12,
      "target": 34962
    },
    {
      "buffer": 0,
      "byteLength": 31744,
      "byteOffset": 416296,
      "byteStride": 8,
      "target": 34962
    },
    {
      "buffer": 0,
      "byteLength": 11520,
      "byteOffset": 448040,
      "target": 34963
    }
  ],
  "buffers": [
    {
      "name": "wkwk_gold-processed",
      "byteLength": 459560,
      "uri": "data:application/octet-stream;base64,"
    }
  ]
}
