<svg width="512" height="512" viewBox="0 0 512 512" fill="none" xmlns="http://www.w3.org/2000/svg">
  <!-- Outer border -->
  <rect width="512" height="512" fill="white"/>
  <rect x="32" y="32" width="448" height="448" fill="black"/>
  <rect x="64" y="64" width="384" height="384" fill="white"/>
  
  <!-- Unique pattern for coicoi -->
  <rect x="96" y="96" width="320" height="320" fill="black"/>
  <rect x="128" y="128" width="256" height="256" fill="white"/>
  
  <!-- Central pattern -->
  <circle cx="256" cy="256" r="80" fill="black"/>
  <circle cx="256" cy="256" r="50" fill="white"/>
  <rect x="231" y="231" width="50" height="50" fill="black"/>
  
  <!-- Corner markers -->
  <rect x="160" y="160" width="32" height="32" fill="black"/>
  <rect x="320" y="160" width="32" height="32" fill="black"/>
  <rect x="160" y="320" width="32" height="32" fill="black"/>
  <rect x="320" y="320" width="32" height="32" fill="black"/>
  
  <!-- Distinctive elements for coicoi -->
  <rect x="192" y="192" width="16" height="128" fill="black"/>
  <rect x="304" y="192" width="16" height="128" fill="black"/>
  <rect x="208" y="208" width="96" height="16" fill="black"/>
  <rect x="208" y="288" width="96" height="16" fill="black"/>
</svg>