<svg width="400" height="400" xmlns="http://www.w3.org/2000/svg">
  <!-- Background with texture -->
  <rect width="400" height="400" fill="#f5f5f5"/>
  
  <!-- Complex pattern for better feature detection -->
  <defs>
    <pattern id="dots" x="0" y="0" width="20" height="20" patternUnits="userSpaceOnUse">
      <circle cx="10" cy="10" r="2" fill="#00bcd4" opacity="0.3"/>
    </pattern>
    <linearGradient id="coicoiDetailGrad" x1="0%" y1="0%" x2="100%" y2="100%">
      <stop offset="0%" style="stop-color:#00bcd4;stop-opacity:1" />
      <stop offset="50%" style="stop-color:#0097a7;stop-opacity:1" />
      <stop offset="100%" style="stop-color:#006064;stop-opacity:1" />
    </linearGradient>
  </defs>
  
  <!-- Background pattern -->
  <rect width="400" height="400" fill="url(#dots)"/>
  
  <!-- Main frame -->
  <rect x="30" y="30" width="340" height="340" rx="20" fill="#000000" stroke="#00bcd4" stroke-width="4"/>
  
  <!-- Inner decorative elements -->
  <circle cx="200" cy="200" r="120" fill="url(#coicoiDetailGrad)"/>
  <circle cx="200" cy="200" r="80" fill="#ffffff" opacity="0.4"/>
  <circle cx="200" cy="200" r="40" fill="#ffffff" opacity="0.6"/>
  
  <!-- Complex corner elements -->
  <polygon points="30,30 80,30 55,80" fill="#00bcd4"/>
  <polygon points="370,30 370,80 320,55" fill="#00bcd4"/>
  <polygon points="30,370 80,370 55,320" fill="#00bcd4"/>
  <polygon points="370,370 320,370 345,320" fill="#00bcd4"/>
  
  <!-- Text with outline -->
  <text x="200" y="210" font-family="Arial, sans-serif" font-size="36" font-weight="bold" 
        text-anchor="middle" fill="#ffffff" stroke="#000000" stroke-width="1">COICOI</text>
  
  <!-- Additional feature points -->
  <rect x="100" y="100" width="10" height="10" fill="#ffeb3b"/>
  <rect x="290" y="100" width="10" height="10" fill="#ffeb3b"/>
  <rect x="100" y="290" width="10" height="10" fill="#ffeb3b"/>
  <rect x="290" y="290" width="10" height="10" fill="#ffeb3b"/>
  
  <!-- Center cross for alignment -->
  <line x1="190" y1="200" x2="210" y2="200" stroke="#ff5722" stroke-width="2"/>
  <line x1="200" y1="190" x2="200" y2="210" stroke="#ff5722" stroke-width="2"/>
</svg>