<svg width="400" height="400" xmlns="http://www.w3.org/2000/svg">
  <!-- Background with texture -->
  <rect width="400" height="400" fill="#f0f0f0"/>
  
  <!-- Complex pattern for better feature detection -->
  <defs>
    <pattern id="squares" x="0" y="0" width="15" height="15" patternUnits="userSpaceOnUse">
      <rect x="0" y="0" width="7" height="7" fill="#9c27b0" opacity="0.2"/>
    </pattern>
    <linearGradient id="wkwkDetailGrad" x1="0%" y1="0%" x2="100%" y2="100%">
      <stop offset="0%" style="stop-color:#9c27b0;stop-opacity:1" />
      <stop offset="50%" style="stop-color:#6a1b9a;stop-opacity:1" />
      <stop offset="100%" style="stop-color:#4a148c;stop-opacity:1" />
    </linearGradient>
  </defs>
  
  <!-- Background pattern -->
  <rect width="400" height="400" fill="url(#squares)"/>
  
  <!-- Main frame -->
  <rect x="50" y="50" width="300" height="300" rx="25" fill="#000000" stroke="#9c27b0" stroke-width="6"/>
  
  <!-- Inner square with gradient -->
  <rect x="100" y="100" width="200" height="200" rx="15" fill="url(#wkwkDetailGrad)"/>
  <rect x="130" y="130" width="140" height="140" rx="10" fill="#ffffff" opacity="0.3"/>
  <rect x="160" y="160" width="80" height="80" rx="5" fill="#ffffff" opacity="0.5"/>
  
  <!-- Corner triangles with more detail -->
  <polygon points="50,50 90,50 70,90" fill="#9c27b0" opacity="0.8"/>
  <polygon points="350,50 350,90 310,70" fill="#9c27b0" opacity="0.8"/>
  <polygon points="50,350 90,350 70,310" fill="#9c27b0" opacity="0.8"/>
  <polygon points="350,350 310,350 330,310" fill="#9c27b0" opacity="0.8"/>
  
  <!-- Text with shadow effect -->
  <text x="202" y="212" font-family="Arial, sans-serif" font-size="42" font-weight="bold" 
        text-anchor="middle" fill="#000000" opacity="0.3">WKWK</text>
  <text x="200" y="210" font-family="Arial, sans-serif" font-size="42" font-weight="bold" 
        text-anchor="middle" fill="#ffffff">WKWK</text>
  
  <!-- Feature points -->
  <circle cx="120" cy="120" r="5" fill="#e91e63"/>
  <circle cx="280" cy="120" r="5" fill="#e91e63"/>
  <circle cx="120" cy="280" r="5" fill="#e91e63"/>
  <circle cx="280" cy="280" r="5" fill="#e91e63"/>
  
  <!-- Center marker -->
  <polygon points="200,185 205,195 195,195" fill="#ff9800"/>
  <polygon points="200,215 195,205 205,205" fill="#ff9800"/>
  <polygon points="185,200 195,195 195,205" fill="#ff9800"/>
  <polygon points="215,200 205,205 205,195" fill="#ff9800"/>
</svg>